{
  "accessors": [
    {
      "name": "polySurface263_1_0_positions",
      "componentType": 5126,
      "count": 15947,
      "min": [
        -16.80319595336914,
        -0.07885000109672546,
        -24.176162719726562
      ],
      "max": [
        16.800945281982422,
        76.6506118774414,
        24.17421531677246
      ],
      "type": "VEC3",
      "bufferView": 0,
      "byteOffset": 0
    },
    {
      "name": "polySurface263_1_0_normals",
      "componentType": 5126,
      "count": 15947,
      "min": [
        -1,
        -1,
        -1
      ],
      "max": [
        1,
        1,
        1
      ],
      "type": "VEC3",
      "bufferView": 1,
      "byteOffset": 0
    },
    {
      "name": "polySurface263_1_0_texcoords",
      "componentType": 5126,
      "count": 15947,
      "min": [
        0.00031900001340545714,
        0.0013599999947473407
      ],
      "max": [
        0.999750018119812,
        0.9991170167922974
      ],
      "type": "VEC2",
      "bufferView": 2,
      "byteOffset": 0
    },
    {
      "name": "polySurface263_1_0_indices",
      "componentType": 5123,
      "count": 26580,
      "min": [
        0
      ],
      "max": [
        15946
      ],
      "type": "SCALAR",
      "bufferView": 3,
      "byteOffset": 0
    }
  ],
  "asset": {
    "generator": "obj2gltf",
    "version": "2.0"
  },
  "buffers": [
    {
      "name": "haishang",
      "byteLength": 937980,
      "uri": "data:application/octet-stream;base64,"
    }
  ],
  "bufferViews": [
    {
      "name": "bufferView_0",
      "buffer": 0,
      "byteLength": 191364,
      "byteOffset": 0,
      "byteStride": 12,
      "target": 34962
    },
    {
      "name": "bufferView_1",
      "buffer": 0,
      "byteLength": 191364,
      "byteOffset": 191364,
      "byteStride": 12,
      "target": 34962
    },
    {
      "name": "bufferView_2",
      "buffer": 0,
      "byteLength": 127576,
      "byteOffset": 382728,
      "byteStride": 8,
      "target": 34962
    },
    {
      "name": "bufferView_3",
      "buffer": 0,
      "byteLength": 53160,
      "byteOffset": 510304,
      "target": 34963
    },
    {
      "buffer": 0,
      "byteOffset": 563464,
      "byteLength": 374516
    }
  ],
  "images": [
    {
      "name": "haishangpingtai_COLOR",
      "mimeType": "image/jpeg",
      "bufferView": 4
    }
  ],
  "materials": [
    {
      "name": "lambert2SG",
      "pbrMetallicRoughness": {
        "baseColorTexture": {
          "index": 0
        },
        "baseColorFactor": [
          1,
          1,
          1,
          1
        ],
        "metallicFactor": 0,
        "roughnessFactor": 1
      },
      "emissiveFactor": [
        0,
        0,
        0
      ],
      "alphaMode": "OPAQUE",
      "doubleSided": false
    }
  ],
  "meshes": [
    {
      "name": "polySurface263_1",
      "primitives": [
        {
          "attributes": {
            "POSITION": 0,
            "NORMAL": 1,
            "TEXCOORD_0": 2
          },
          "indices": 3,
          "material": 0,
          "mode": 4
        }
      ]
    }
  ],
  "nodes": [
    {
      "name": "polySurface263",
      "mesh": 0
    }
  ],
  "samplers": [
    {
      "magFilter": 9729,
      "minFilter": 9986,
      "wrapS": 10497,
      "wrapT": 10497
    }
  ],
  "scene": 0,
  "scenes": [
    {
      "nodes": [
        0
      ]
    }
  ],
  "textures": [
    {
      "name": "haishangpingtai_COLOR",
      "sampler": 0,
      "source": 0
    }
  ]
}
